<?xml version="1.0" standalone="no"?><!DOCTYPE svg PUBLIC "-//W3C//DTD SVG 1.1//EN" "http://www.w3.org/Graphics/SVG/1.1/DTD/svg11.dtd"><svg t="1532003172909" class="icon" style="" viewBox="0 0 1024 1024" version="1.1" xmlns="http://www.w3.org/2000/svg" p-id="6876" xmlns:xlink="http://www.w3.org/1999/xlink" width="200" height="200"><defs><style type="text/css"></style></defs><path d="M880.804159 282.080493 739.629859 140.871401c-29.560246-29.571503-75.193563-32.036647-101.707426-5.51255L167.001013 606.302783l248.357438 248.347205 470.911186-470.87537C912.807037 357.2628 910.341892 311.592644 880.804159 282.080493zM411.986657 791.55395 230.1124 609.699136 587.267752 252.55504l181.179432 182.476985L411.986657 791.55395zM853.011162 350.492606l-49.538253 49.503461L622.271988 217.528292l48.885384-48.864918c10.048867-10.04682 27.376511-9.126868 38.587853 2.060939l141.172253 141.184533C862.151333 323.177494 863.059006 340.457042 853.011162 350.492606zM167.001013 854.651011l34.153868-213.133192-34.386158-34.350342-45.853327 267.065522c-1.998517 7.351432 0.106424 15.142885 5.418406 20.534685 5.396917 5.352915 13.18837 7.42204 20.526499 5.423523l267.091104-45.842071-34.398438-34.444487L167.001013 854.651011z" p-id="6877"></path></svg>