<?xml version="1.0" standalone="no"?><!DOCTYPE svg PUBLIC "-//W3C//DTD SVG 1.1//EN" "http://www.w3.org/Graphics/SVG/1.1/DTD/svg11.dtd"><svg t="1531582059212" class="icon" style="" viewBox="0 0 1024 1024" version="1.1" xmlns="http://www.w3.org/2000/svg" p-id="1575" xmlns:xlink="http://www.w3.org/1999/xlink" width="200" height="200"><defs><style type="text/css"></style></defs><path d="M864 672.992l-640 0 0 160 640 0c17.664 0 32-14.304 32-32l0-96c0-17.664-14.336-32-32-32zM704 608.992l0-96c0-17.664-14.336-32-32-32l-448 0 0 160 448 0c17.664 0 32-14.304 32-32zM512 416.992l0-96c0-17.664-14.336-32-32-32l-256 0 0 160 256 0c17.664 0 32-14.336 32-32zM320 224.992l0-96c0-17.696-14.336-32-32-32l-64 0 0 160 64 0c17.664 0 32-14.336 32-32zM160 96.992l-32 0 0 830.016 768 0 0-32-736 0 0-798.016z" p-id="1576" fill="#010323"></path></svg>